<?xml version="1.0" standalone="no"?><!DOCTYPE svg PUBLIC "-//W3C//DTD SVG 1.1//EN" "http://www.w3.org/Graphics/SVG/1.1/DTD/svg11.dtd"><svg t="1684826792457" class="icon" viewBox="0 0 1024 1024" version="1.1" xmlns="http://www.w3.org/2000/svg" p-id="2376" xmlns:xlink="http://www.w3.org/1999/xlink" width="64" height="64"><path d="M797.18 546.62c0-21.5 17.6-39.7 39.4-39.7 22.1 0 39.4 18.2 39.4 39.7L875.98 932.32c0 21.8-17.3 39.4-39.4 39.4l-0.8 0-648 0c-22.1 0-39.7-17.6-39.7-39.4l0-0.8L148.08 546.62c0-21.5 17.6-39.7 39.7-39.7 21.8 0 39.1 18.2 39.1 39.7l0 346.1 126.5 0L353.38 504.12c0-13.1 10.9-24 23.7-24l0.6 0 269.3 0c13.1 0 23.5 10.9 23.5 24l0 0.6 0 388 126.8 0L797.18 546.62 797.18 546.62zM400.58 892.72 400.58 892.72l222.9 0L623.48 528.22 400.58 528.22 400.58 892.72 400.58 892.72zM67.68 557.52 67.68 557.52c-15.9 15.4-40.2 15.4-56.1 0-15.4-15.4-15.4-40.2 0-55.6L484.38 29.32c15.1-15.4 40.2-15.4 55.6 0l0.6 0.8 471.7 471.7c15.6 15.4 15.6 40.2 0 55.6-15.1 15.4-40.2 15.4-55.6 0L512.28 113.12 67.68 557.52 67.68 557.52z" p-id="2377"></path></svg>