<?xml version="1.0" standalone="no"?><!DOCTYPE svg PUBLIC "-//W3C//DTD SVG 1.1//EN" "http://www.w3.org/Graphics/SVG/1.1/DTD/svg11.dtd"><svg t="1684826811255" class="icon" viewBox="0 0 1024 1024" version="1.1" xmlns="http://www.w3.org/2000/svg" p-id="3367" xmlns:xlink="http://www.w3.org/1999/xlink" width="64" height="64"><path d="M818.548364 822.458182v3.025454c0 13.218909-11.170909 24.343273-25.320728 24.343273h-96.302545V621.847273c0-53.666909-40.494545-98.257455-89.181091-98.257455H414.254545c-49.664 0-89.181091 43.566545-89.18109 98.257455v228.072727H231.796364a24.901818 24.901818 0 0 1-25.320728-24.389818l-39.563636-452.980364c0-9.122909 5.12-16.197818 13.218909-20.247273l310.085818-172.264727a41.984 41.984 0 0 1 43.566546 0l309.061818 172.264727a23.272727 23.272727 0 0 1 13.218909 20.247273l-37.515636 449.954909zM883.432727 280.296727l-310.132363-171.240727a125.672727 125.672727 0 0 0-122.600728 0l-310.085818 172.218182a105.378909 105.378909 0 0 0-54.737454 92.253091l38.493091 454.004363C126.417455 884.317091 173.009455 930.909091 230.865455 930.909091H792.203636c57.716364 0 104.354909-46.638545 106.402909-105.425455l39.563637-449.908363v-3.072c0-38.493091-21.317818-73.960727-54.737455-92.16z" fill="#F92558" p-id="3368"></path></svg>